<?xml version="1.0" encoding="iso-8859-1"?>
<!-- Generator: Adobe Illustrator 16.0.0, SVG Export Plug-In . SVG Version: 6.00 Build 0)  -->
<!DOCTYPE svg PUBLIC "-//W3C//DTD SVG 1.1//EN" "http://www.w3.org/Graphics/SVG/1.1/DTD/svg11.dtd">
<svg version="1.1" id="Capa_1" xmlns="http://www.w3.org/2000/svg" xmlns:xlink="http://www.w3.org/1999/xlink" x="0px" y="0px"
	 width="407.814px" height="407.814px" viewBox="0 0 407.814 407.814" style="enable-background:new 0 0 407.814 407.814;"
	 xml:space="preserve">
<g>
	<g>
		<path d="M353.985,203.905c35.145-20.995,47.049-66.379,26.508-101.954c-20.54-35.575-65.794-47.957-101.547-28.017
			C278.336,33.001,244.985,0,203.907,0c-41.079,0-74.431,33.001-75.039,73.937c-35.754-19.94-81.01-7.557-101.549,28.02
			C6.78,137.531,18.683,182.915,53.83,203.908c-35.146,20.995-47.05,66.379-26.51,101.954c20.54,35.576,65.796,47.958,101.55,28.017
			c0.607,40.936,33.96,73.938,75.039,73.936c41.08,0,74.43-33.002,75.038-73.936c35.754,19.939,81.011,7.557,101.548-28.021
			C401.035,270.282,389.13,224.898,353.985,203.905z M317.434,269.451c-13.201,22.873-42.296,30.835-65.281,18.016
			c-0.395,26.313-21.836,47.532-48.244,47.532c-26.408,0.003-47.852-21.217-48.245-47.532c-22.985,12.82-52.081,4.858-65.283-18.015
			c-13.208-22.872-5.554-52.049,17.042-65.545c-22.596-13.495-30.25-42.673-17.043-65.546
			c13.202-22.873,42.297-30.834,65.282-18.015c0.396-26.315,21.838-47.533,48.245-47.533c26.407,0,47.85,21.218,48.244,47.532
			c22.984-12.819,52.08-4.858,65.282,18.015c13.208,22.872,5.553,52.049-17.042,65.545
			C322.987,217.4,330.642,246.578,317.434,269.451z"/>
		<path d="M287.606,172.9c7.174-4.141,9.631-13.314,5.49-20.488c-4.144-7.174-13.317-9.633-20.491-5.49
			c-2.681,1.547-4.69,5.125-6.16,9.002c-9.101-7.516-22.217-9.078-33.092-3.015c-0.189-12.451-8.104-23.028-19.164-27.151
			c2.623-3.211,4.718-6.743,4.718-9.838c0-8.285-6.717-15-15-15c-8.283,0-15,6.715-15,15c0,3.096,2.095,6.628,4.719,9.839
			c-11.058,4.124-18.976,14.7-19.164,27.15c-10.877-6.063-23.994-4.501-33.094,3.015c-1.469-3.876-3.48-7.455-6.16-9.002
			c-7.174-4.143-16.348-1.684-20.49,5.49c-4.141,7.174-1.684,16.348,5.491,20.49c2.681,1.548,6.786,1.5,10.88,0.834
			c-1.961,11.645,3.242,23.788,13.937,30.171c-10.693,6.386-15.896,18.528-13.938,30.169c-4.093-0.666-8.199-0.714-10.88,0.834
			c-7.174,4.141-9.631,13.314-5.49,20.488c4.143,7.174,13.316,9.633,20.491,5.49c2.679-1.547,4.69-5.125,6.159-9.002
			c9.101,7.518,22.22,9.08,33.1,3.014c0.184,12.453,8.101,23.029,19.158,27.154c-2.623,3.211-4.718,6.742-4.718,9.838
			c-0.001,8.285,6.716,14.998,14.999,15c8.283,0,15-6.717,15-15c0-3.096-2.094-6.627-4.717-9.838
			c11.059-4.123,18.974-14.703,19.163-27.154c10.876,6.066,23.995,4.504,33.094-3.012c1.47,3.875,3.479,7.453,6.16,9
			c7.174,4.143,16.347,1.684,20.488-5.49s1.685-16.348-5.49-20.49c-2.681-1.548-6.786-1.5-10.878-0.834
			c1.958-11.641-3.246-23.783-13.938-30.169c10.694-6.386,15.897-18.529,13.938-30.17C280.819,174.4,284.925,174.448,287.606,172.9z
			 M203.907,228.906c-13.807,0-25-11.193-25-25c0-13.807,11.193-25,25-25s25,11.193,25,25
			C228.907,217.713,217.714,228.906,203.907,228.906z"/>
	</g>
</g>
<g>
</g>
<g>
</g>
<g>
</g>
<g>
</g>
<g>
</g>
<g>
</g>
<g>
</g>
<g>
</g>
<g>
</g>
<g>
</g>
<g>
</g>
<g>
</g>
<g>
</g>
<g>
</g>
<g>
</g>
</svg>
